<svg width="251" height="394" viewBox="0 0 251 394" fill="none" xmlns="http://www.w3.org/2000/svg">
<path d="M0 107.587V8C0 3.58172 3.58172 0 8 0H243C247.418 0 251 3.58173 251 8.00001V104.525C251 110.584 243.483 114.354 238.197 117.315C232.731 120.376 228.948 127.869 226.357 135.993C223.893 143.721 213.013 142.979 205.288 140.504C198.525 138.336 199.315 164.213 175.91 158.115C145.363 150.157 160.514 223.83 113.485 177.827C111.499 175.883 110.69 172.955 111.377 170.262L132.458 87.5526C133.883 81.9648 129.107 76.7512 123.416 77.6815L82.5574 84.3606C82.1307 84.4303 81.7 84.4632 81.2677 84.4727C74.0315 84.6311 57.1574 87.4456 46.2092 100.431C29.3486 120.43 8.12658 118.95 1.24678 111.404C0.312676 110.38 0 108.973 0 107.587Z" fill="#0075FF"/>
<path d="M31.5063 359.493C28.1632 345.831 20.0166 329.903 11.8448 317.719C7.89554 311.831 0 314.802 0 321.891V386C0 390.418 3.58172 394 8 394H141.616C144.886 394 148.035 391.896 147.445 388.679C146.435 383.167 141.279 374.454 126.025 359.493C99.2448 333.226 37.8075 385.244 31.5063 359.493Z" fill="#0075FF"/>
<path d="M237 130C237 306.273 237 308.5 237 308.5" stroke="#0075FF" stroke-width="5" stroke-linecap="round"/>
</svg>
