<svg width="547" height="156" viewBox="0 0 547 156" fill="none" xmlns="http://www.w3.org/2000/svg">
<path d="M53.7506 31.0333V62.068L26.8986 77.5693L26.876 15.516L53.7506 31.0333Z" fill="black"/>
<path d="M134.377 77.544L107.502 62.0667V31.0334L161.253 62.0534L134.4 77.5574L134.377 77.544Z" fill="#0499DB"/>
<path d="M0 93.1L26.876 77.5826L53.7507 62.0666V93.0986L80.6267 77.5826L107.503 93.1L80.6493 108.603L53.7533 124.131L0 93.1Z" fill="#0499DB"/>
<path d="M80.6265 46.5493V77.5826L53.7505 93.0986V31.0333L107.502 -1.07269e-05V31.0066V62.0666L80.6265 46.5493Z" fill="#FBBF11"/>
<path d="M53.7534 155.173V124.132L80.6268 108.616L107.503 124.132L53.7534 155.173Z" fill="#FBBF11"/>
<path d="M134.377 139.623L107.502 124.132L80.6265 108.616L107.502 93.0999L80.6265 77.5825V46.5492L107.502 62.0665L134.4 77.5559L134.377 139.623Z" fill="black"/>
<path fill-rule="evenodd" clip-rule="evenodd" d="M236.825 110.781C226.97 110.781 220.692 103.188 220.692 93.1849C220.692 83.112 226.97 75.5906 236.825 75.5906C246.608 75.5906 252.96 83.112 252.96 93.1849C252.96 103.188 246.608 110.781 236.825 110.781ZM236.825 118.372C251.353 118.372 261.721 107.715 261.721 93.1849C261.721 78.6573 251.353 68 236.825 68C222.224 68 211.932 78.6573 211.932 93.1849C211.932 107.715 222.224 118.372 236.825 118.372Z" fill="#0499DB"/>
<path fill-rule="evenodd" clip-rule="evenodd" d="M295.438 118.372C305.22 118.372 311.279 113.189 315.002 107.349L307.702 103.698C305.366 107.715 300.619 110.781 295.438 110.781C285.799 110.781 278.646 103.334 278.646 93.1849C278.646 82.8917 285.799 75.5906 295.438 75.5906C300.619 75.5906 305.366 78.5838 307.702 82.6729L314.93 78.8761C311.351 73.037 305.22 68 295.438 68C281.055 68 269.884 78.1464 269.884 93.1849C269.884 108.15 281.055 118.372 295.438 118.372Z" fill="black"/>
<path fill-rule="evenodd" clip-rule="evenodd" d="M334.135 91.7984V117.497H325.593V68.801H346.984C356.621 68.801 362.972 75.0062 362.972 84.0608C362.972 92.676 357.277 97.4198 351.364 98.3692L363.337 117.497H353.408L342.676 99.3182L338.237 91.7984H345.888C350.707 91.7984 354.211 88.7332 354.211 83.9864C354.211 79.3146 350.707 76.3214 345.888 76.3214H334.135V91.7984Z" fill="black"/>
<path fill-rule="evenodd" clip-rule="evenodd" d="M440.662 78.6438L425.914 117.497H416.206L435.334 68.801H445.992L465.119 117.497H455.41L440.662 78.6438Z" fill="black"/>
<path fill-rule="evenodd" clip-rule="evenodd" d="M488.076 117.497V76.3214H502.823V68.801H464.787V76.3214H479.533V117.497H488.076Z" fill="black"/>
<path fill-rule="evenodd" clip-rule="evenodd" d="M375.316 117.497H408.68V109.977H383.857V96.9094H408.168V89.389H383.857V88.8786V76.3214H408.68V68.801H375.316V117.497Z" fill="black"/>
<path fill-rule="evenodd" clip-rule="evenodd" d="M522.126 76.3214H546.947V68.801H513.583V117.497H546.947V109.977H522.126V96.9094H546.436V89.389H522.126V88.8786V76.3214Z" fill="black"/>
<path fill-rule="evenodd" clip-rule="evenodd" d="M203.55 89.4266H178.894V96.9453H194.709C193.317 105.029 187.407 110.781 178.894 110.781C169.039 110.781 162.76 103.188 162.76 93.1849C162.76 83.112 169.039 75.5906 178.894 75.5906C184.606 75.5906 189.149 78.1548 191.941 82.2942L199.393 78.3062C195.032 71.9453 187.733 68 178.894 68C164.293 68 154 78.6573 154 93.1849C154 107.715 164.293 118.372 178.894 118.372C193.423 118.372 203.79 107.715 203.79 93.1849C203.79 91.901 203.708 90.6464 203.55 89.4266Z" fill="#0499DB"/>
<path d="M379.12 144.1L377.747 147.304H380.504L379.12 144.1ZM383.319 150.482H381.831L381.019 148.549H377.234L376.41 150.482H374.968L378.491 142.42H379.795L383.319 150.482Z" fill="#0499DB"/>
<path d="M397.264 150.482H395.56L392.825 146.88L391.58 148.161V150.482H390.173V142.477H391.58V146.503L395.388 142.477H397.116L393.787 145.918L397.264 150.482Z" fill="#0499DB"/>
<path d="M403.083 143.632C401.491 143.632 400.383 144.901 400.383 146.468C400.383 148.036 401.515 149.328 403.105 149.328C404.695 149.328 405.804 148.058 405.804 146.492C405.804 144.924 404.672 143.632 403.083 143.632ZM403.083 150.62C400.623 150.62 398.907 148.756 398.907 146.492C398.907 144.227 400.647 142.339 403.105 142.339C405.564 142.339 407.279 144.204 407.279 146.468C407.279 148.733 405.541 150.62 403.083 150.62Z" fill="#0499DB"/>
<path d="M413.268 150.62C410.935 150.62 409.196 148.801 409.196 146.492C409.196 144.204 410.9 142.339 413.326 142.339C414.8 142.339 415.694 142.855 416.459 143.587L415.555 144.627C414.915 144.032 414.23 143.632 413.314 143.632C411.78 143.632 410.671 144.889 410.671 146.468C410.671 148.046 411.78 149.328 413.314 149.328C414.298 149.328 414.926 148.927 415.612 148.287L416.516 149.203C415.68 150.07 414.766 150.62 413.268 150.62Z" fill="#0499DB"/>
<path d="M420.651 147.109V150.482H419.244V142.477H420.651V145.805H424.471V142.477H425.879V150.482H424.471V147.109H420.651Z" fill="#0499DB"/>
<path d="M437.136 150.62C434.803 150.62 433.064 148.801 433.064 146.492C433.064 144.204 434.768 142.339 437.193 142.339C438.668 142.339 439.561 142.855 440.327 143.587L439.423 144.627C438.783 144.032 438.097 143.632 437.183 143.632C435.648 143.632 434.539 144.889 434.539 146.468C434.539 148.046 435.648 149.328 437.183 149.328C438.165 149.328 438.795 148.927 439.48 148.287L440.384 149.203C439.549 150.07 438.633 150.62 437.136 150.62Z" fill="#0499DB"/>
<path d="M446.933 143.632C445.341 143.632 444.233 144.901 444.233 146.468C444.233 148.036 445.365 149.328 446.956 149.328C448.545 149.328 449.655 148.058 449.655 146.492C449.655 144.924 448.523 143.632 446.933 143.632ZM446.933 150.62C444.473 150.62 442.757 148.756 442.757 146.492C442.757 144.227 444.497 142.339 446.956 142.339C449.415 142.339 451.129 144.204 451.129 146.468C451.129 148.733 449.392 150.62 446.933 150.62Z" fill="#0499DB"/>
<path d="M453.631 142.477H455.038V149.203H459.246V150.482H453.631V142.477Z" fill="#0499DB"/>
<path d="M461.735 142.477H463.142V149.203H467.351V150.482H461.735V142.477Z" fill="#0499DB"/>
<path d="M473.305 144.1L471.932 147.304H474.688L473.305 144.1ZM477.501 150.482H476.015L475.203 148.549H471.417L470.593 150.482H469.153L472.675 142.42H473.98L477.501 150.482Z" fill="#0499DB"/>
<path d="M484.932 148.127C484.932 147.44 484.394 147.041 483.286 147.041H481.055V149.237H483.388C484.35 149.237 484.932 148.858 484.932 148.127ZM484.487 144.753C484.487 144.1 483.983 143.722 483.079 143.722H481.055V145.851H482.976C483.88 145.851 484.487 145.496 484.487 144.753ZM485.894 144.524C485.894 145.506 485.344 146.012 484.75 146.32C485.688 146.64 486.339 147.177 486.339 148.276C486.339 149.716 485.162 150.482 483.378 150.482H479.671V142.477H483.263C484.875 142.477 485.894 143.267 485.894 144.524Z" fill="#0499DB"/>
<path d="M492.544 143.632C490.954 143.632 489.846 144.901 489.846 146.468C489.846 148.036 490.978 149.328 492.568 149.328C494.158 149.328 495.267 148.058 495.267 146.492C495.267 144.924 494.135 143.632 492.544 143.632ZM492.544 150.62C490.086 150.62 488.37 148.756 488.37 146.492C488.37 144.227 490.11 142.339 492.568 142.339C495.027 142.339 496.742 144.204 496.742 146.468C496.742 148.733 495.004 150.62 492.544 150.62Z" fill="#0499DB"/>
<path d="M502.697 143.758H500.649V146.445H502.708C503.713 146.445 504.355 145.918 504.355 145.096C504.355 144.215 503.737 143.758 502.697 143.758ZM504.377 150.482L502.411 147.692H500.649V150.482H499.243V142.477H502.809C504.652 142.477 505.784 143.449 505.784 145.016C505.784 146.343 504.995 147.142 503.875 147.452L506.036 150.482H504.377Z" fill="#0499DB"/>
<path d="M512.231 144.1L510.857 147.304H513.615L512.231 144.1ZM516.429 150.482H514.941L514.129 148.549H510.344L509.52 150.482H508.079L511.601 142.42H512.905L516.429 150.482Z" fill="#0499DB"/>
<path d="M521.296 150.482H519.877V143.78H517.34V142.477H523.836V143.78H521.296V150.482Z" fill="#0499DB"/>
<path d="M528.063 142.477V150.482H526.656V142.477H528.063Z" fill="#0499DB"/>
<path d="M537.141 142.477H538.663L535.333 150.54H534.099L530.772 142.477H532.327L534.74 148.63L537.141 142.477Z" fill="#0499DB"/>
<path d="M546.768 143.734H542.239V145.817H546.255V147.075H542.239V149.224H546.825V150.482H540.832V142.477H546.768V143.734Z" fill="#0499DB"/>
</svg>
