<svg width="162" height="157" viewBox="0 0 162 157" fill="none" xmlns="http://www.w3.org/2000/svg">
<path d="M54.1237 31.9852V63.0199L27.2717 78.5212L27.249 16.4679L54.1237 31.9852Z" fill="white"/>
<path d="M134.75 78.4959L107.875 63.0186V31.9853L161.626 63.0053L134.773 78.5093L134.75 78.4959Z" fill="#0499DB"/>
<path d="M0.373047 94.0519L27.249 78.5345L54.1237 63.0185V94.0505L80.9997 78.5345L107.876 94.0519L81.0224 109.555L54.1264 125.083L0.373047 94.0519Z" fill="#0499DB"/>
<path d="M80.9995 47.5012V78.5345L54.1235 94.0505V31.9852L107.876 0.951894V31.9585V63.0185L80.9995 47.5012Z" fill="#FBBF11"/>
<path d="M54.1265 156.125V125.084L80.9998 109.568L107.876 125.084L54.1265 156.125Z" fill="#FBBF11"/>
<path d="M134.75 140.574L107.876 125.084L80.9995 109.568L107.876 94.0518L80.9995 78.5345V47.5011L107.876 63.0185L134.773 78.5078L134.75 140.574Z" fill="white"/>
</svg>
