<svg width="553" height="157" viewBox="0 0 553 157" fill="none" xmlns="http://www.w3.org/2000/svg">
<path d="M54.1237 31.9852V63.0199L27.2717 78.5212L27.249 16.4679L54.1237 31.9852Z" fill="white"/>
<path d="M134.75 78.4959L107.875 63.0186V31.9853L161.626 63.0053L134.773 78.5093L134.75 78.4959Z" fill="#0499DB"/>
<path d="M0.373047 94.0519L27.249 78.5345L54.1237 63.0185V94.0505L80.9997 78.5345L107.876 94.0519L81.0224 109.555L54.1264 125.083L0.373047 94.0519Z" fill="#0499DB"/>
<path d="M80.9995 47.5012V78.5345L54.1235 94.0505V31.9852L107.876 0.951894V31.9585V63.0185L80.9995 47.5012Z" fill="#FBBF11"/>
<path d="M54.1265 156.125V125.084L80.9998 109.568L107.876 125.084L54.1265 156.125Z" fill="#FBBF11"/>
<path d="M134.75 140.574L107.876 125.084L80.9995 109.568L107.876 94.0518L80.9995 78.5345V47.5011L107.876 63.0185L134.773 78.5078L134.75 140.574Z" fill="white"/>
<path fill-rule="evenodd" clip-rule="evenodd" d="M242.825 114.781C232.97 114.781 226.692 107.188 226.692 97.1849C226.692 87.112 232.97 79.5906 242.825 79.5906C252.608 79.5906 258.96 87.112 258.96 97.1849C258.96 107.188 252.608 114.781 242.825 114.781ZM242.825 122.372C257.353 122.372 267.721 111.715 267.721 97.1849C267.721 82.6573 257.353 72 242.825 72C228.224 72 217.932 82.6573 217.932 97.1849C217.932 111.715 228.224 122.372 242.825 122.372Z" fill="#0499DB"/>
<path fill-rule="evenodd" clip-rule="evenodd" d="M301.438 122.372C311.22 122.372 317.279 117.189 321.002 111.349L313.702 107.698C311.366 111.715 306.619 114.781 301.438 114.781C291.799 114.781 284.646 107.334 284.646 97.1849C284.646 86.8917 291.799 79.5906 301.438 79.5906C306.619 79.5906 311.366 82.5838 313.702 86.6729L320.93 82.8761C317.351 77.037 311.22 72 301.438 72C287.055 72 275.884 82.1464 275.884 97.1849C275.884 112.15 287.055 122.372 301.438 122.372Z" fill="white"/>
<path fill-rule="evenodd" clip-rule="evenodd" d="M340.135 95.7984V121.497H331.593V72.801H352.984C362.621 72.801 368.972 79.0062 368.972 88.0608C368.972 96.676 363.277 101.42 357.364 102.369L369.337 121.497H359.408L348.676 103.318L344.237 95.7984H351.888C356.707 95.7984 360.211 92.7332 360.211 87.9864C360.211 83.3146 356.707 80.3214 351.888 80.3214H340.135V95.7984Z" fill="white"/>
<path fill-rule="evenodd" clip-rule="evenodd" d="M446.662 82.6438L431.914 121.497H422.206L441.334 72.801H451.992L471.119 121.497H461.41L446.662 82.6438Z" fill="white"/>
<path fill-rule="evenodd" clip-rule="evenodd" d="M494.076 121.497V80.3214H508.823V72.801H470.787V80.3214H485.533V121.497H494.076Z" fill="white"/>
<path fill-rule="evenodd" clip-rule="evenodd" d="M381.316 121.497H414.68V113.977H389.857V100.909H414.168V93.389H389.857V92.8786V80.3214H414.68V72.801H381.316V121.497Z" fill="white"/>
<path fill-rule="evenodd" clip-rule="evenodd" d="M528.126 80.3214H552.947V72.801H519.583V121.497H552.947V113.977H528.126V100.909H552.436V93.389H528.126V92.8786V80.3214Z" fill="white"/>
<path fill-rule="evenodd" clip-rule="evenodd" d="M209.55 93.4266H184.894V100.945H200.709C199.317 109.029 193.407 114.781 184.894 114.781C175.039 114.781 168.76 107.188 168.76 97.1849C168.76 87.112 175.039 79.5906 184.894 79.5906C190.606 79.5906 195.149 82.1548 197.941 86.2942L205.393 82.3062C201.032 75.9453 193.733 72 184.894 72C170.293 72 160 82.6573 160 97.1849C160 111.715 170.293 122.372 184.894 122.372C199.423 122.372 209.79 111.715 209.79 97.1849C209.79 95.901 209.708 94.6464 209.55 93.4266Z" fill="#0499DB"/>
<path d="M385.12 148.1L383.747 151.304H386.504L385.12 148.1ZM389.319 154.482H387.831L387.019 152.549H383.234L382.41 154.482H380.968L384.491 146.42H385.795L389.319 154.482Z" fill="#0499DB"/>
<path d="M403.264 154.482H401.56L398.825 150.88L397.58 152.161V154.482H396.173V146.477H397.58V150.503L401.388 146.477H403.116L399.787 149.918L403.264 154.482Z" fill="#0499DB"/>
<path d="M409.083 147.632C407.491 147.632 406.383 148.901 406.383 150.468C406.383 152.036 407.515 153.328 409.105 153.328C410.695 153.328 411.804 152.058 411.804 150.492C411.804 148.924 410.672 147.632 409.083 147.632ZM409.083 154.62C406.623 154.62 404.907 152.756 404.907 150.492C404.907 148.227 406.647 146.339 409.105 146.339C411.564 146.339 413.279 148.204 413.279 150.468C413.279 152.733 411.541 154.62 409.083 154.62Z" fill="#0499DB"/>
<path d="M419.268 154.62C416.935 154.62 415.196 152.801 415.196 150.492C415.196 148.204 416.9 146.339 419.326 146.339C420.8 146.339 421.694 146.855 422.459 147.587L421.555 148.627C420.915 148.032 420.23 147.632 419.314 147.632C417.78 147.632 416.671 148.889 416.671 150.468C416.671 152.046 417.78 153.328 419.314 153.328C420.298 153.328 420.926 152.927 421.612 152.287L422.516 153.203C421.68 154.07 420.766 154.62 419.268 154.62Z" fill="#0499DB"/>
<path d="M426.651 151.109V154.482H425.244V146.477H426.651V149.805H430.471V146.477H431.879V154.482H430.471V151.109H426.651Z" fill="#0499DB"/>
<path d="M443.136 154.62C440.803 154.62 439.064 152.801 439.064 150.492C439.064 148.204 440.768 146.339 443.193 146.339C444.668 146.339 445.561 146.855 446.327 147.587L445.423 148.627C444.783 148.032 444.097 147.632 443.183 147.632C441.648 147.632 440.539 148.889 440.539 150.468C440.539 152.046 441.648 153.328 443.183 153.328C444.165 153.328 444.795 152.927 445.48 152.287L446.384 153.203C445.549 154.07 444.633 154.62 443.136 154.62Z" fill="#0499DB"/>
<path d="M452.933 147.632C451.341 147.632 450.233 148.901 450.233 150.468C450.233 152.036 451.365 153.328 452.956 153.328C454.545 153.328 455.655 152.058 455.655 150.492C455.655 148.924 454.523 147.632 452.933 147.632ZM452.933 154.62C450.473 154.62 448.757 152.756 448.757 150.492C448.757 148.227 450.497 146.339 452.956 146.339C455.415 146.339 457.129 148.204 457.129 150.468C457.129 152.733 455.392 154.62 452.933 154.62Z" fill="#0499DB"/>
<path d="M459.631 146.477H461.038V153.203H465.246V154.482H459.631V146.477Z" fill="#0499DB"/>
<path d="M467.735 146.477H469.142V153.203H473.351V154.482H467.735V146.477Z" fill="#0499DB"/>
<path d="M479.305 148.1L477.932 151.304H480.688L479.305 148.1ZM483.501 154.482H482.015L481.203 152.549H477.417L476.593 154.482H475.153L478.675 146.42H479.98L483.501 154.482Z" fill="#0499DB"/>
<path d="M490.932 152.127C490.932 151.44 490.394 151.041 489.286 151.041H487.055V153.237H489.388C490.35 153.237 490.932 152.858 490.932 152.127ZM490.487 148.753C490.487 148.1 489.983 147.722 489.079 147.722H487.055V149.851H488.976C489.88 149.851 490.487 149.496 490.487 148.753ZM491.894 148.524C491.894 149.506 491.344 150.012 490.75 150.32C491.688 150.64 492.339 151.177 492.339 152.276C492.339 153.716 491.162 154.482 489.378 154.482H485.671V146.477H489.263C490.875 146.477 491.894 147.267 491.894 148.524Z" fill="#0499DB"/>
<path d="M498.544 147.632C496.954 147.632 495.846 148.901 495.846 150.468C495.846 152.036 496.978 153.328 498.568 153.328C500.158 153.328 501.267 152.058 501.267 150.492C501.267 148.924 500.135 147.632 498.544 147.632ZM498.544 154.62C496.086 154.62 494.37 152.756 494.37 150.492C494.37 148.227 496.11 146.339 498.568 146.339C501.027 146.339 502.742 148.204 502.742 150.468C502.742 152.733 501.004 154.62 498.544 154.62Z" fill="#0499DB"/>
<path d="M508.697 147.758H506.649V150.445H508.708C509.713 150.445 510.355 149.918 510.355 149.096C510.355 148.215 509.737 147.758 508.697 147.758ZM510.377 154.482L508.411 151.692H506.649V154.482H505.243V146.477H508.809C510.652 146.477 511.784 147.449 511.784 149.016C511.784 150.343 510.995 151.142 509.875 151.452L512.036 154.482H510.377Z" fill="#0499DB"/>
<path d="M518.231 148.1L516.857 151.304H519.615L518.231 148.1ZM522.429 154.482H520.941L520.129 152.549H516.344L515.52 154.482H514.079L517.601 146.42H518.905L522.429 154.482Z" fill="#0499DB"/>
<path d="M527.296 154.482H525.877V147.78H523.34V146.477H529.836V147.78H527.296V154.482Z" fill="#0499DB"/>
<path d="M534.063 146.477V154.482H532.656V146.477H534.063Z" fill="#0499DB"/>
<path d="M543.141 146.477H544.663L541.333 154.54H540.099L536.772 146.477H538.327L540.74 152.63L543.141 146.477Z" fill="#0499DB"/>
<path d="M552.768 147.734H548.239V149.817H552.255V151.075H548.239V153.224H552.825V154.482H546.832V146.477H552.768V147.734Z" fill="#0499DB"/>
</svg>
